# xmcd CD database file
#
# Track frame offsets:
#	150
#	3027
#	35983
#	62434
#	90714
#	118540
#
# Disc length: 1974 seconds
#
# Revision: 0
# Processed by: cddbd v1.5.2PL0 Copyright (c) Steve Scherf et al.
# Submitted via: CDex 1.79
#
DISCID=4107b406
DTITLE=Derek Trucks - Derek Trucks Band Live at Artpark on 2007-07-03 - D1
DYEAR=1900
DGENRE=Blues
TTITLE0=Intro
TTITLE1=I Wish I Knew
TTITLE2=I'll Find My Way
TTITLE3=Above My Head
TTITLE4=All I Do
TTITLE5=Leavin' Truck
EXTD=
EXTT0=
EXTT1=
EXTT2=
EXTT3=
EXTT4=
EXTT5=
PLAYORDER=
